<mxfile host="app.diagrams.net" modified="2023-11-28T11:02:01.239Z" agent="Mozilla/5.0 (Windows NT 10.0; Win64; x64) AppleWebKit/537.36 (KHTML, like Gecko) Chrome/118.0.0.0 Safari/537.36 OPR/104.0.0.0 (Edition std-1)" etag="bWYtWhwYdLUv1qZbs5ET" version="22.1.4" type="github">
  <diagram name="Seite-1" id="QqYlVoBG6kU6dthMpLXk">
    <mxGraphModel dx="1392" dy="664" grid="1" gridSize="10" guides="1" tooltips="1" connect="1" arrows="1" fold="1" page="1" pageScale="1" pageWidth="827" pageHeight="1169" math="0" shadow="0">
      <root>
        <mxCell id="0" />
        <mxCell id="1" parent="0" />
        <mxCell id="9Y9J-UEAxCPge8LL9L1X-1" value="&lt;p style=&quot;margin: 0px ; margin-top: 4px ; text-align: center&quot;&gt;&lt;b&gt;Programmierblock-Block&lt;/b&gt;&lt;/p&gt;&lt;hr size=&quot;1&quot;&gt;&lt;div style=&quot;height: 2px&quot;&gt;&lt;/div&gt;" style="verticalAlign=top;align=left;overflow=fill;fontSize=12;fontFamily=Helvetica;html=1;" parent="1" vertex="1">
          <mxGeometry x="130" width="240" height="410" as="geometry" />
        </mxCell>
        <mxCell id="2_NRH9Znsnw-WcC0HDQT-1" style="edgeStyle=orthogonalEdgeStyle;rounded=1;orthogonalLoop=1;jettySize=auto;html=1;endArrow=none;endFill=0;strokeColor=default;" parent="1" source="9Y9J-UEAxCPge8LL9L1X-7" target="9Y9J-UEAxCPge8LL9L1X-9" edge="1">
          <mxGeometry relative="1" as="geometry">
            <Array as="points">
              <mxPoint x="80" y="205" />
              <mxPoint x="80" y="85" />
            </Array>
          </mxGeometry>
        </mxCell>
        <mxCell id="2_NRH9Znsnw-WcC0HDQT-2" style="edgeStyle=orthogonalEdgeStyle;shape=connector;rounded=1;orthogonalLoop=1;jettySize=auto;html=1;labelBackgroundColor=default;strokeColor=default;align=center;verticalAlign=middle;fontFamily=Helvetica;fontSize=11;fontColor=default;endArrow=none;endFill=0;" parent="1" source="9Y9J-UEAxCPge8LL9L1X-7" target="9Y9J-UEAxCPge8LL9L1X-18" edge="1">
          <mxGeometry relative="1" as="geometry">
            <Array as="points">
              <mxPoint x="50" y="205" />
              <mxPoint x="50" y="205" />
            </Array>
          </mxGeometry>
        </mxCell>
        <mxCell id="2_NRH9Znsnw-WcC0HDQT-3" style="edgeStyle=orthogonalEdgeStyle;shape=connector;rounded=1;orthogonalLoop=1;jettySize=auto;html=1;labelBackgroundColor=default;strokeColor=default;align=center;verticalAlign=middle;fontFamily=Helvetica;fontSize=11;fontColor=default;endArrow=none;endFill=0;" parent="1" source="9Y9J-UEAxCPge8LL9L1X-7" target="9Y9J-UEAxCPge8LL9L1X-16" edge="1">
          <mxGeometry relative="1" as="geometry">
            <Array as="points">
              <mxPoint x="80" y="205" />
              <mxPoint x="80" y="325" />
            </Array>
          </mxGeometry>
        </mxCell>
        <mxCell id="9Y9J-UEAxCPge8LL9L1X-7" value="Spieler" style="shape=umlActor;verticalLabelPosition=bottom;labelBackgroundColor=#ffffff;verticalAlign=top;html=1;outlineConnect=0;" parent="1" vertex="1">
          <mxGeometry y="175" width="30" height="60" as="geometry" />
        </mxCell>
        <mxCell id="9Y9J-UEAxCPge8LL9L1X-9" value="Programm schreiben" style="ellipse;whiteSpace=wrap;html=1;fillColor=#234f7c;fontColor=#FFFFFF;" parent="1" vertex="1">
          <mxGeometry x="180" y="50" width="140" height="70" as="geometry" />
        </mxCell>
        <mxCell id="9Y9J-UEAxCPge8LL9L1X-16" value="Befehlssatz der Programmierung Ã¤ndern" style="ellipse;whiteSpace=wrap;html=1;fillColor=#234f7c;fontColor=#FFFFFF;" parent="1" vertex="1">
          <mxGeometry x="180" y="290" width="140" height="70" as="geometry" />
        </mxCell>
        <mxCell id="9Y9J-UEAxCPge8LL9L1X-18" value="Befehlssatz-Hilfe einsehen" style="ellipse;whiteSpace=wrap;html=1;fillColor=#008e74;fontColor=#FFFFFF;" parent="1" vertex="1">
          <mxGeometry x="180" y="170" width="140" height="70" as="geometry" />
        </mxCell>
        <mxCell id="9Y9J-UEAxCPge8LL9L1X-19" value="&amp;lt;&amp;lt;Extends&lt;span style=&quot;color: rgb(0 , 0 , 0)&quot;&gt;&amp;gt;&amp;gt;&lt;/span&gt;" style="endArrow=open;endSize=16;endFill=0;html=1;dashed=1;" parent="1" source="9Y9J-UEAxCPge8LL9L1X-18" target="9Y9J-UEAxCPge8LL9L1X-16" edge="1">
          <mxGeometry x="-0.3067" width="160" relative="1" as="geometry">
            <mxPoint x="455.5" y="639" as="sourcePoint" />
            <mxPoint x="271.4516386545911" y="606.3221343699597" as="targetPoint" />
            <mxPoint as="offset" />
          </mxGeometry>
        </mxCell>
        <mxCell id="d60zhM7Ul9lputQ3Dv5v-1" value="" style="group;aspect=fixed;" vertex="1" connectable="0" parent="1">
          <mxGeometry x="-90" width="120" height="104" as="geometry" />
        </mxCell>
        <mxCell id="d60zhM7Ul9lputQ3Dv5v-2" value="" style="ellipse;whiteSpace=wrap;html=1;strokeColor=none;fillColor=#234F7C;" vertex="1" parent="d60zhM7Ul9lputQ3Dv5v-1">
          <mxGeometry x="8" y="8" width="24" height="24" as="geometry" />
        </mxCell>
        <mxCell id="d60zhM7Ul9lputQ3Dv5v-3" value="" style="ellipse;whiteSpace=wrap;html=1;strokeColor=none;fillColor=#0E6E7C;" vertex="1" parent="d60zhM7Ul9lputQ3Dv5v-1">
          <mxGeometry x="8" y="40.00000000000001" width="24" height="24" as="geometry" />
        </mxCell>
        <mxCell id="d60zhM7Ul9lputQ3Dv5v-4" value="" style="ellipse;whiteSpace=wrap;html=1;strokeColor=none;fillColor=#008E74;" vertex="1" parent="d60zhM7Ul9lputQ3Dv5v-1">
          <mxGeometry x="8" y="72.00000000000001" width="24" height="24" as="geometry" />
        </mxCell>
        <mxCell id="d60zhM7Ul9lputQ3Dv5v-5" value="Muss-Kriterium" style="text;html=1;strokeColor=none;fillColor=none;align=center;verticalAlign=middle;whiteSpace=wrap;rounded=0;" vertex="1" parent="d60zhM7Ul9lputQ3Dv5v-1">
          <mxGeometry x="40" y="8" width="80" height="24" as="geometry" />
        </mxCell>
        <mxCell id="d60zhM7Ul9lputQ3Dv5v-6" value="Soll-Kriterium" style="text;html=1;strokeColor=none;fillColor=none;align=center;verticalAlign=middle;whiteSpace=wrap;rounded=0;" vertex="1" parent="d60zhM7Ul9lputQ3Dv5v-1">
          <mxGeometry x="40" y="40.00000000000001" width="80" height="24" as="geometry" />
        </mxCell>
        <mxCell id="d60zhM7Ul9lputQ3Dv5v-7" value="Kann-Kriterium" style="text;html=1;strokeColor=none;fillColor=none;align=center;verticalAlign=middle;whiteSpace=wrap;rounded=0;" vertex="1" parent="d60zhM7Ul9lputQ3Dv5v-1">
          <mxGeometry x="40" y="72.00000000000001" width="80" height="24" as="geometry" />
        </mxCell>
        <mxCell id="d60zhM7Ul9lputQ3Dv5v-8" value="" style="rounded=0;whiteSpace=wrap;html=1;fillColor=none;aspect=fixed;" vertex="1" parent="d60zhM7Ul9lputQ3Dv5v-1">
          <mxGeometry width="119.9952" height="103.99584" as="geometry" />
        </mxCell>
      </root>
    </mxGraphModel>
  </diagram>
</mxfile>
